<svg xmlns="http://www.w3.org/2000/svg" viewBox="0 0 250 250" fill="#5a21b6" xmlns:v="https://vecta.io/nano"><path d="M157.7 21.9c-7-2.8-25.3-2.3-33.7-1.2l-61.6 8.7c-7.3 15.5 14.3 92.5 18.6 92.3 1.2 0 1.3-9.1-.1-13.3-14.8-43.6-19.6-66.3-17.8-78 43.9-.9 57.6-8.1 92-.3 3.4.7 5.6-7 2.6-8.2zM92.3 228.1c7 2.8 25.3 2.3 33.7 1.2l61.6-8.7c7.3-15.5-14.3-92.5-18.6-92.3-1.2 0-1.3 9.1.1 13.3 14.8 43.6 19.6 66.3 17.8 78-43.9.9-57.6 8.1-92 .3-3.4-.7-5.6 7-2.6 8.2zm138.2-126.9c-1.1-7.5-10.8-23-16-29.7l-38.6-48.8c-17.1 1.5-72.6 59-70.3 62.6.6 1 8.5-3.4 11.4-6.8 30.2-34.8 47.4-50.3 58.4-54.7 22.9 37.4 36 45.7 46.7 79.3 1.1 3.4 8.9 1.4 8.4-1.9zm-211 47.6c1.1 7.5 10.8 23 16 29.7l38.6 48.8c17.1-1.5 72.6-59 70.3-62.6-.6-1-8.5 3.4-11.4 6.8-30.2 34.8-47.4 50.3-58.4 54.7-22.9-37.4-36-45.7-46.7-79.3-1.1-3.4-8.9-1.4-8.4 1.9zm178.6 55.9c5.9-4.7 14.6-20.8 17.8-28.6l23.2-57.8c-9.8-14.1-87.3-33.7-89.3-29.8-.6 1 7.2 5.7 11.6 6.5 45.2 8.9 67.3 16.1 76.5 23.4-21.1 38.5-21.7 54-45.6 79.9-2.4 2.7 3.2 8.4 5.8 6.4zM51.9 45.3C46 50 37.3 66.1 34.1 73.9l-23.2 57.8c9.8 14.1 87.3 33.7 89.3 29.8.6-1-7.2-5.7-11.6-6.5-45.2-8.9-67.3-16.1-76.5-23.4 21.1-38.5 21.7-54 45.6-79.9 2.4-2.7-3.2-8.4-5.8-6.4z"/><circle cx="125" cy="125" r="16.7"/></svg>