<svg xmlns="http://www.w3.org/2000/svg" xmlns:xlink="http://www.w3.org/1999/xlink" viewBox="0 0 1000 250" xmlns:v="https://vecta.io/nano"><path d="M104 65c-4.1-1.6-14.7-1.3-19.6-.7l-35.9 5.1c-4.3 9 8.3 53.8 10.8 53.7.7 0 .8-5.3-.1-7.7C50.8 90 48 76.8 49 70c25.5-.5 33.5-4.7 53.6-.2 1.9.4 3.2-4.1 1.4-4.8zM66 185c4.1 1.6 14.7 1.3 19.6.7l35.9-5.1c4.3-9-8.3-53.8-10.8-53.7-.7 0-.8 5.3.1 7.7 8.6 25.4 11.4 38.6 10.3 45.4-25.5.5-33.5 4.7-53.6.2-2-.4-3.3 4.1-1.5 4.8zm80.4-73.8c-.7-4.3-6.3-13.4-9.3-17.3l-22.5-28.4c-9.9.9-42.3 34.3-40.9 36.4.3.6 5-2 6.6-3.9 17.5-20.2 27.6-29.3 34-31.8 13.3 21.8 21 26.6 27.1 46.2.8 1.8 5.3.7 5-1.2zM23.6 138.8c.7 4.3 6.3 13.4 9.3 17.3l22.5 28.4c9.9-.9 42.3-34.3 40.9-36.4-.3-.6-5 2-6.6 3.9-17.5 20.2-27.6 29.3-34 31.8-13.3-21.8-21-26.6-27.1-46.2-.7-1.8-5.2-.7-5 1.2zm104 32.6c3.4-2.7 8.5-12.1 10.3-16.6l13.5-33.6c-5.7-8.2-50.8-19.6-52-17.4-.3.6 4.2 3.3 6.7 3.8 26.3 5.2 39.1 9.4 44.5 13.6-12.3 22.4-12.6 31.4-26.5 46.5-1.3 1.5 2 4.9 3.5 3.7zM42.5 78.6C39 81.4 34 90.8 32.1 95.3l-13.5 33.6c5.7 8.2 50.8 19.6 52 17.4.3-.6-4.2-3.3-6.7-3.8-26.3-5.2-39.1-9.4-44.5-13.6C31.7 106.4 32 97.4 45.9 82.3c1.4-1.5-1.9-4.9-3.4-3.7z"/><circle cx="85" cy="125" r="9.7"/><path d="M184.1 90.5c3.2-.4 5-1.6 7.9-8.1l12.8-28.7c3-6.6 3.9-9.9 3.9-12.8 0-.4 5.3-1.6 5.5-1.1l18.5 42.5c2.9 6.6 4.7 7.8 7.7 8.2 1.1.1.8 2.3-.2 2.3H222c-1 0-1.1-2.2-.2-2.3 2.9-.4 5.8-1.6 3-8.1l-1.3-2.9c-.7-1.7-2.4-1.7-5-1.7h-15.9c-2.3 0-4 0-4.8 1.7l-1.2 2.9c-2.8 6.7.1 7.5 3.9 8.1.9.1.8 2.3-.2 2.3h-15.8c-1.2 0-1.4-2.2-.4-2.3zM202.5 74h16.2c1.1 0 2.4-.1 2-1.1l-10-23.5-10.1 23.5c-.5 1 .7 1.1 1.9 1.1zm43.9 16.6c3.3-.4 6.1-1.5 6.4-6.7l2.2-43.4c.1-1 2.4-1 3 0l22.1 41.4 20.7-41.4c.6-1 3-1 3 .1l2.2 43.3c.3 5.2 3 6.3 6.4 6.7.6.1.2 2.2-.5 2.2h-17.8c-.5 0-1-2.1-.5-2.2 2.7-.4 5.2-1.6 5-6.7L297.4 56l-13.7 27.3c-1.3 2.5-2.7 6.1-2.9 7.4-.2.8-1.3 1.3-2.4 1.3-1 0-1.6-.4-2-1.3l-18.2-34.2-1.2 27.4c-.2 4.9 2.2 6.4 5.1 6.7.6.1.2 2.2-.5 2.2h-14.8c-.6 0-1-2.1-.4-2.2zm71.9-.1c3.2-.4 5-1.6 7.9-8.1L339 53.6c3-6.6 3.9-9.9 3.9-12.8 0-.4 5.3-1.6 5.5-1.1l18.5 42.5c2.9 6.6 4.7 7.8 7.7 8.2 1.1.1.8 2.3-.2 2.3H356c-1 0-1.1-2.2-.2-2.3 2.9-.4 5.8-1.6 3-8.1l-1.3-2.9c-.7-1.7-2.4-1.7-5-1.7h-15.9c-2.3 0-4 0-4.8 1.7l-1.2 2.9c-2.8 6.7.1 7.5 3.9 8.1.9.1.8 2.3-.2 2.3h-15.8c-.9.1-1.2-2.1-.2-2.2zM336.7 74h16.2c1.1 0 2.4-.1 2-1.1l-10-23.5-10.1 23.5c-.5 1 .7 1.1 1.9 1.1zm59.6 18.5c-5.9 0-11.5 0-15.9.5-.7.1-1.5-1.6-1.1-2.2L411 44.4h-14.9c-8.2 0-11.2 2.2-13.2 4.7-.8 1-2.7.2-2.2-1l2.7-7c.5-1.2 1.7-1.1 2.6-.9 4.3 1 11.5.7 18.6.7 5.6 0 11.2 0 15.6-.5.7-.1 1.5 1.6 1.1 2.2L389.6 89h16.2c8.3 0 11.2-2.2 13.3-4.7.8-1 2.7-.2 2.1 1l-2.7 7c-.5 1.2-1.7 1.1-2.6.9-4.3-.9-12.2-.7-19.6-.7zM429 66.8c0-15 10.8-27.6 27.4-27.6 15.9 0 27.1 11.6 27.1 27 0 15.1-10.6 27.6-27.2 27.6-15.9.2-27.3-11.5-27.3-27zm29.9 22.8c7.1 0 17.4-4.4 17.4-19.6 0-15.6-11-26.5-22.6-26.5-7.2 0-17.3 4.4-17.3 19.5 0 15.8 10.8 26.6 22.5 26.6zm79.1 2.5l-36.6-39.5v31.1c0 5 3 5.9 6.7 6.9.6.1.3 2.2-.5 2.2h-16.5c-.7 0-1.1-2-.5-2.2 3.7-1 6.4-2 6.4-6.9V53.8c0-4.6-.5-7.8-3.1-10.7-.5-.4-1.1-1-1.1-1.4 0-.5.5-1.3 1.2-1.3h5.2c.8 0 1.4.1 1.9.7L537 80.2V49.4c0-5.2-3.3-5.9-6.7-6.8-.6-.1-.3-2.2.5-2.2h16.5c.7 0 1.1 2 .5 2.2-3.4.9-6.4 1.6-6.4 6.8v30c0 4.6.2 9.9.9 12.6.4 1.2-.9 1.5-1.8 1.5-1.1 0-1.7-.6-2.5-1.4zm30.1-1.4c4.5-1.1 8-1.8 8-7.3v-34c0-5.2-3.2-6.3-6.5-6.7-.6-.1-.2-2.2.4-2.2h19.3c.6 0 1 2.1.5 2.2-3.3.4-6.3 1.5-6.3 6.7v34c0 4.3 2.1 5.7 8.7 5.7 12.7 0 16.3-4.7 18.2-8 .6-1 2.4-.8 2.4.6 0 4.3-3.1 11.1-7.7 11.3-3.4-.2-8.6-.4-15.1-.4-7.1 0-14.3-.2-21.3.4-.9 0-1.2-2.2-.6-2.3zm51-23.9c0-15 10.8-27.6 27.4-27.6 15.9 0 27.1 11.6 27.1 27 0 15.1-10.6 27.6-27.2 27.6-15.9.2-27.3-11.5-27.3-27zM649 89.6c7.1 0 17.4-4.4 17.4-19.6 0-15.6-11-26.5-22.6-26.5-7.2 0-17.3 4.4-17.3 19.5 0 15.8 10.8 26.6 22.5 26.6zm32.9-21.8c0-14.6 10.1-28.5 30.9-28.5 9 0 15.9 2.6 15.2 4.9l-1 2.8c-2.1 6.4-6.1-2.5-19.3-2.5-11.8 0-18.4 7.2-18.4 19.2 0 17.9 13.1 26 23.3 26 5.5 0 8.5-2.7 8.5-7.5v-1.4c0-5.8-2.3-7.5-8.5-8.5-1-.1-.4-2.5 1.4-2.5h18c2 0 1 2.3.2 2.5-2.5.7-4.2 2.3-4.2 7.2v2.7c0 2.1 0 3.4 1.4 6-4.6 2.3-12.5 5.8-14.5 5.8-18.2 0-33-8.5-33-26.2zm58.5 22.8c3.7-.5 6.4-1.9 6.4-6.7V49.4c0-4.9-2.7-6.2-6.4-6.7-.6-.1-.2-2.2.5-2.2H760c.6 0 1.1 2.1.5 2.2-3.3.4-6.3 1.5-6.3 6.7v34.5c0 5.2 3 6.3 6.3 6.7.6.1.2 2.2-.5 2.2h-19.1c-.7 0-1.1-2.1-.5-2.2zm28-2.6l.7-2.5c2-7 4.1 3.7 16.6 3.7 6.8 0 10.7-3.2 10.7-8.1 0-4.1-3-5.8-7.7-8.5l-9-5.2c-7.5-4.5-10.4-7.8-10.4-12.9 0-8.7 8.4-15.2 18.1-15.2 5.9 0 13 2.4 12.2 4.9l-.9 2.8c-2 6.4-4-3-14.4-3-6 0-9 3.1-9 7.2 0 3.3 2 5.2 7.1 8.2l9.3 5.5c7.7 4.4 10.6 7.8 10.6 12.9 0 9-9.3 16.1-19.4 16.1-6.4.1-15.4-2.8-14.5-5.9zm50.9 2.7c5.1-.6 8.8-1.7 8.8-5.8V47.2c0-1.8-.6-2.4-2.4-2.4H823c-7.9 0-11 1.1-12.9 4.9-.6 1.3-2.8 1.1-2.6 0 .6-3 1.2-4.9 1.7-8.6.2-1.2 1.1-1.2 2.4-1 2.6.3 6.6.4 20.5.4s19.7-.1 22.3-.4c1.3-.1 2.6-.1 2.2 1-1.1 3.4-1.7 5.7-2.2 8.6-.2 1.3-2.1 1.2-2.4 0-.7-3.7-3.7-4.9-10.6-4.9h-3c-1.8 0-2.9.6-2.9 2.4v37.7c0 4 3.8 5.2 8.8 5.8.6.1.2 2.1-.5 2.1H820c-.8 0-1.3-2-.7-2.1zm42.9-.1c3.7-.5 6.4-1.9 6.4-6.7V49.4c0-4.9-2.7-6.2-6.4-6.7-.6-.1-.2-2.2.5-2.2h19.1c.6 0 1.1 2.1.5 2.2-3.3.4-6.3 1.5-6.3 6.7v34.5c0 5.2 3 6.3 6.3 6.7.6.1.2 2.2-.5 2.2h-19.1c-.6 0-1.1-2.1-.5-2.2zm27.6-23.2c0-13.1 8.3-28.2 29.1-28.2 8.6 0 16.2 2.6 15.4 5.2l-.8 2.6c-2.2 6.7-6-2.6-18.7-2.6-11.2 0-17.5 7-17.5 18.7 0 16.7 12.8 24.5 24.3 24.5 1.3 0 7.2-1 12.3-4.1.6-.4 2 1 1.5 1.7-3.3 4.6-13.1 8.7-15.2 8.7-12.9.1-30.4-7.3-30.4-26.5zM943.7 88l.7-2.5c2-7 4.1 3.7 16.6 3.7 6.8 0 10.7-3.2 10.7-8.1 0-4.1-3-5.8-7.7-8.5l-9-5.2c-7.5-4.5-10.4-7.8-10.4-12.9 0-8.7 8.4-15.2 18.1-15.2 5.9 0 13 2.4 12.2 4.9L974 47c-2 6.4-4-3-14.4-3-6 0-9 3.1-9 7.2 0 3.3 2 5.2 7.1 8.2l9.3 5.5c7.7 4.4 10.6 7.8 10.6 12.9 0 9-9.3 16.1-19.4 16.1-6.4.1-15.3-2.8-14.5-5.9zM188 204.1c5.8-.8 9-3.1 14.2-15.3l23.1-53.9c5.3-12.4 7-18.7 7-24 0-.8 9.6-3.1 10-2.1l33.4 79.9c5.2 12.4 8.5 14.6 14 15.4 1.9.3 1.4 4.4-.3 4.4h-33.1c-1.8 0-2.1-4.1-.4-4.4 5.2-.8 10.4-2.9 5.3-15.3l-2.3-5.5c-1.2-3.2-4.4-3.2-9-3.2h-28.8c-4.1 0-7.3 0-8.6 3.2l-2.2 5.5c-5.1 12.6.1 14.2 7 15.3 1.6.3 1.4 4.4-.4 4.4h-28.5c-1.8 0-2.2-4.1-.4-4.4zm33.3-30.8h29.2c2.1 0 4.4-.3 3.6-2.1L236 127l-18.2 44.2c-.9 1.8 1.3 2.1 3.5 2.1z"/><use xlink:href="#B"/><use xlink:href="#B" x="76.3"/><path d="M452.9 204.4c6.7-1 11.6-3.5 11.6-12.6V127c0-9.1-4.9-11.6-11.6-12.6-1.1-.1-.3-4.1.8-4.1h34.5c1.1 0 1.9 3.9.8 4.1-5.9.8-11.4 2.8-11.4 12.6v64.8c0 9.8 5.5 11.8 11.4 12.6 1.1.1.3 4.1-.8 4.1h-34.5c-1 0-1.8-3.9-.8-4.1zm50.6-4.9l1.2-4.8c3.6-13.2 7.4 6.9 30 6.9 12.2 0 19.3-6 19.3-15.2 0-7.7-5.5-10.9-14-16l-16.3-9.8c-13.6-8.4-18.8-14.7-18.8-24.1 0-16.3 15.2-28.5 32.7-28.5 10.7 0 23.4 4.5 22 9.3l-1.6 5.2c-3.6 11.9-7.3-5.6-26-5.6-10.8 0-16.3 5.9-16.3 13.6 0 6.2 3.6 9.8 12.9 15.4l16.7 10.2c13.8 8.3 19.2 14.7 19.2 24.3 0 17-16.7 30.3-35.1 30.3-11.3 0-27.4-5.3-25.9-11.2z"/><use xlink:href="#C"/><path d="M659.7 204.1c5.8-.8 9-3.1 14.2-15.3l23.1-53.9c5.3-12.4 7-18.7 7-24 0-.8 9.6-3.1 10-2.1l33.4 79.9c5.2 12.4 8.5 14.6 14 15.4 1.9.3 1.4 4.4-.3 4.4H728c-1.8 0-2.1-4.1-.4-4.4 5.2-.8 10.4-2.9 5.3-15.3l-2.3-5.5c-1.2-3.2-4.4-3.2-9-3.2h-28.8c-4.1 0-7.3 0-8.6 3.2l-2.2 5.5c-5.1 12.6.1 14.2 7 15.3 1.6.3 1.4 4.4-.4 4.4h-28.5c-1.8 0-2.2-4.1-.4-4.4zm33.3-30.8h29.2c2.1 0 4.4-.3 3.6-2.1L707.7 127l-18.2 44.2c-.9 1.8 1.3 2.1 3.5 2.1zm164 33.9l-66.1-74.1v58.4c0 9.4 5.3 11.1 12 12.9 1.1.3.5 4.1-.8 4.1h-29.9c-1.2 0-1.9-3.8-.8-4.1 6.7-1.8 11.5-3.8 11.5-12.9v-56.1c0-8.6-.8-14.7-5.6-20.1-.8-.8-1.9-1.8-1.9-2.7 0-1 .8-2.4 2.2-2.4h9.4c1.5 0 2.5.1 3.4 1.3l64.8 73.4v-57.8c0-9.8-6-11.1-12-12.8-1.1-.3-.5-4.1.8-4.1h29.9c1.2 0 2.1 3.8.8 4.1-6.2 1.7-11.5 2.9-11.5 12.8v56.3c0 8.6.3 18.7 1.6 23.7.7 2.2-1.6 2.8-3.3 2.8-2 0-3.1-1.1-4.5-2.7z"/><use xlink:href="#C" x="310.7"/><defs ><path id="B" d="M302.7 199.5l1.2-4.8c3.6-13.2 7.4 6.9 30 6.9 12.2 0 19.3-6 19.3-15.2 0-7.7-5.5-10.9-14-16l-16.3-9.8c-13.6-8.4-18.8-14.7-18.8-24.1 0-16.3 15.2-28.5 32.7-28.5 10.7 0 23.4 4.5 22 9.3l-1.6 5.2c-3.6 11.9-7.3-5.6-26-5.6-10.8 0-16.3 5.9-16.3 13.6 0 6.2 3.6 9.8 12.9 15.4l16.7 10.2c13.8 8.3 19.2 14.7 19.2 24.3 0 17-16.7 30.3-35.1 30.3-11.2 0-27.4-5.3-25.9-11.2z"/><path id="C" d="M595.5 204.6c9.2-1.1 15.9-3.2 15.9-10.8v-70.9c0-3.4-1.1-4.5-4.4-4.5h-4.9c-14.2 0-19.9 2.1-23.3 9.1-1.1 2.4-5.1 2.1-4.7 0 1.1-5.6 2.2-9.1 3-16.1.3-2.2 1.9-2.2 4.2-2 4.7.6 11.9.8 37 .8s35.6-.3 40.3-.8c2.3-.3 4.7-.3 4 2-1.9 6.5-3.1 10.7-4 16.1-.4 2.4-3.8 2.2-4.2 0-1.2-7-6.7-9.1-19.2-9.1h-5.5c-3.3 0-5.2 1.1-5.2 4.5v70.9c0 7.6 6.8 9.7 15.9 10.8 1.1.1.3 3.9-1 3.9h-43c-1.2 0-2-3.8-.9-3.9z"/></defs></svg>