<?xml version="1.0" encoding="utf-8"?>
<!-- Generator: Adobe Illustrator 28.0.0, SVG Export Plug-In . SVG Version: 6.00 Build 0)  -->
<svg version="1.1" id="Layer_1" xmlns="http://www.w3.org/2000/svg" xmlns:xlink="http://www.w3.org/1999/xlink" x="0px" y="0px"
	 viewBox="0 0 250 250" style="enable-background:new 0 0 250 250;" xml:space="preserve">
<style type="text/css">
	.st0{opacity:1.000000e-02;fill:#353535;}
	.st1{fill:#878787;}
</style>
<rect class="st0" width="250" height="250"/>
<g>
	<path class="st1" d="M80.5,146.1h-5l-6.7-12.9v13l-4.9,0v-23.5h4.9l6.8,13.4v-13.4h4.9V146.1z"/>
	<path class="st1" d="M85.2,123.8c1.3-1.2,3-1.8,5.2-1.8c2.2,0,3.9,0.6,5.2,1.9c1.2,1.3,1.8,3,1.8,5.2v10.8c0,1.4-0.3,2.5-0.9,3.5
		c-0.6,1-1.4,1.8-2.5,2.3c-1.1,0.5-2.3,0.8-3.7,0.8c-1.3,0-2.5-0.2-3.6-0.7c-1.1-0.5-1.9-1.2-2.6-2.2c-0.6-1-1-2.2-1-3.7v-10.8
		C83.3,126.8,83.9,125,85.2,123.8z M88.4,140.7c0.2,0.4,0.4,0.7,0.7,0.9c0.3,0.2,0.7,0.3,1.2,0.3c0.5,0,0.9-0.1,1.2-0.3
		c0.3-0.2,0.6-0.5,0.7-0.9c0.2-0.4,0.3-0.9,0.3-1.4v-9.5c0-0.7-0.1-1.3-0.2-1.7c-0.1-0.4-0.4-0.8-0.7-1c-0.3-0.2-0.8-0.3-1.3-0.3
		c-0.5,0-0.9,0.1-1.2,0.3c-0.3,0.2-0.6,0.5-0.7,1c-0.2,0.4-0.2,1-0.2,1.8v9.5C88.2,139.8,88.3,140.3,88.4,140.7z"/>
	<path class="st1" d="M108.7,122.6h7.2v23.5H111v-19.2l-2.3-0.1V122.6z"/>
	<path class="st1" d="M127.7,136.3l4.2-13.7h4.8l0.5,23.5h-4.9v-10.4l-3,10.4H126l-2.9-10.4v10.4h-4.9l0.5-23.5h4.9L127.7,136.3z"/>
	<path class="st1" d="M150.9,146.1l-0.9-5h-4.2l-0.9,5h-5.3l4.7-23.5h7.2l4.8,23.5H150.9z M149.4,136.5l-1.4-9l-1.4,9H149.4z"/>
	<path class="st1" d="M167.8,127.1c-0.3-0.1-0.7-0.1-1-0.2c-0.3,0-0.6-0.1-0.9-0.1c-0.6,0-1.1,0.1-1.6,0.2c-0.5,0.2-0.8,0.4-1.1,0.8
		c-0.3,0.4-0.4,0.9-0.4,1.6v10c0,0.6,0.1,1,0.2,1.4c0.2,0.4,0.4,0.6,0.7,0.8c0.3,0.2,0.7,0.3,1.2,0.3c0.3,0,0.6-0.1,0.8-0.2
		c0.3-0.1,0.5-0.3,0.6-0.5c0.2-0.2,0.3-0.5,0.4-0.8c0.1-0.3,0.2-0.7,0.2-1V139h-1.4l-0.7-4.4h7.1v11.5h-3l-0.2-0.7
		c-0.3,0.3-0.7,0.5-1.2,0.7c-0.5,0.1-0.9,0.2-1.3,0.3c-0.4,0-0.8,0.1-1.1,0.1c-1.3,0-2.5-0.2-3.5-0.7c-1.1-0.5-1.9-1.2-2.6-2.2
		c-0.6-1-1-2.2-1-3.8v-10.7c0-1.6,0.3-2.9,0.9-3.9c0.6-1,1.4-1.8,2.5-2.3c1.1-0.5,2.3-0.8,3.8-0.8c0.6,0,1.2,0,1.8,0.1
		c0.6,0.1,1.1,0.2,1.6,0.4c0.5,0.2,1,0.4,1.5,0.6l-1.2,4C168.4,127.2,168.1,127.1,167.8,127.1z"/>
	<path class="st1" d="M174.5,122.6h11.3v4.5h-6.3v4.6h4.4l-1.4,4.5h-3.1l0,5.5h6.3v4.4h-11.2V122.6z"/>
	<path class="st1" d="M73.7,173l-0.8-4.7H69l-0.8,4.7h-4.9l4.3-21.7h6.7l4.4,21.7H73.7z M72.3,164.1l-1.3-8.3l-1.3,8.3H72.3z"/>
	<path class="st1" d="M81.5,151.3l2.8,14.9l2.7-14.9h4.8L86.8,173h-5.1l-4.8-21.7H81.5z"/>
	<path class="st1" d="M100.3,173l-0.8-4.7h-3.9l-0.8,4.7h-4.9l4.3-21.7h6.7l4.4,21.7H100.3z M98.9,164.1l-1.3-8.3l-1.3,8.3H98.9z"/>
	<path class="st1" d="M105.7,151.3h6.6V173h-4.5v-17.7l-2.1-0.1V151.3z"/>
	<path class="st1" d="M115,151.3h4.5v17.6h6.7v4.1H115V151.3z"/>
	<path class="st1" d="M139,173l-0.8-4.7h-3.9l-0.8,4.7h-4.9l4.3-21.7h6.7l4.4,21.7H139z M137.6,164.1l-1.3-8.3l-1.3,8.3H137.6z"/>
	<path class="st1" d="M156.2,151.9c0.9,0.4,1.6,1.1,2.1,1.9c0.5,0.8,0.7,1.8,0.7,3c0,0.7-0.1,1.3-0.3,1.9c-0.2,0.5-0.4,1-0.8,1.4
		c-0.3,0.4-0.7,0.8-1.2,1.1c0.6,0.3,1.2,0.7,1.7,1.1c0.5,0.5,0.9,1.1,1.1,1.8c0.3,0.7,0.4,1.5,0.4,2.5c0,1.3-0.3,2.4-0.8,3.4
		c-0.5,1-1.3,1.7-2.2,2.2c-1,0.5-2.2,0.8-3.6,0.8h-6.8v-21.7h6.5C154.3,151.3,155.3,151.5,156.2,151.9z M153.4,159.7
		c0.3-0.2,0.6-0.4,0.7-0.8c0.2-0.4,0.2-0.8,0.2-1.4c0-0.5-0.1-1-0.2-1.3c-0.1-0.3-0.4-0.6-0.7-0.7c-0.3-0.2-0.7-0.2-1.2-0.2h-1.2
		v4.7h1C152.7,159.9,153.1,159.8,153.4,159.7z M153.8,169c0.4-0.2,0.7-0.4,0.9-0.8c0.2-0.4,0.4-1,0.4-1.8c0-0.6-0.1-1.2-0.3-1.6
		c-0.2-0.4-0.5-0.7-0.9-0.9c-0.4-0.2-0.9-0.3-1.4-0.3h-1.4v5.6h1.6C153.1,169.3,153.4,169.2,153.8,169z"/>
	<path class="st1" d="M162.6,151.3h4.5v17.6h6.7v4.1h-11.2V151.3z"/>
	<path class="st1" d="M176.3,151.3h10.4v4.2h-5.9v4.3h4.1l-1.3,4.1h-2.9l0,5.1h5.8v4h-10.3V151.3z"/>
</g>
<path class="st1" d="M109.4,77.3c-0.6-0.5-1.4-0.3-1.9,0.2s-0.3,1.4,0.2,1.9l32.9,25.8c0.6,0.5,1.4,0.3,1.9-0.2
	c0.5-0.6,0.3-1.4-0.2-1.9l-3.1-2.4c0-0.2,0-0.3,0-0.5V85.9c0-2-1.6-3.6-3.6-3.6h-4.1l-0.6-1.7c-0.4-1.1-1.4-1.8-2.5-1.8h-6.8
	c-1.1,0-2.2,0.7-2.5,1.8l-0.6,1.7h-2.7L109.4,77.3z M123.1,88c0.6-0.2,1.2-0.4,1.9-0.4c2.9,0,5.3,2.4,5.3,5.3c0,0.2,0,0.5,0,0.7
	L123.1,88z M134.3,103.6l-7.3-5.7c-0.6,0.3-1.3,0.4-2,0.4c-2.9,0-5.3-2.4-5.3-5.3c0-0.3,0-0.5,0.1-0.8l-8.9-7c0,0.2-0.1,0.5-0.1,0.7
	v14.2c0,2,1.6,3.6,3.6,3.6H134.3z"/>
</svg>
