<?xml version="1.0" encoding="utf-8"?>
<!-- Generator: Adobe Illustrator 28.0.0, SVG Export Plug-In . SVG Version: 6.00 Build 0)  -->
<svg version="1.1" id="Layer_1" xmlns="http://www.w3.org/2000/svg" xmlns:xlink="http://www.w3.org/1999/xlink" x="0px" y="0px"
	 viewBox="0 0 250 250" style="enable-background:new 0 0 250 250;" xml:space="preserve">
<style type="text/css">
	.st0{opacity:1.000000e-02;fill:#353535;enable-background:new    ;}
	.st1{fill:#878787;}
</style>
<rect class="st0" width="250" height="250"/>
<g>
	<g>
		<path class="st1" d="M90.7,69.6c2.4,0.7,4.5,1.9,6.4,3.6c1.9,1.7,3.4,4,4.6,7c1.2,3,1.7,6.8,1.7,11.4c0,4.9-0.6,9-1.7,12.1
			c-1.1,3.1-2.7,5.5-4.6,7.2c-1.9,1.7-4,2.8-6.3,3.5c-2.3,0.6-4.7,0.9-7.2,0.9H77v16.6H63.8V68.5h19.7
			C85.9,68.5,88.3,68.9,90.7,69.6z M81,103.3c1.6,0,2.9-0.2,4.1-0.5c1.2-0.4,2.1-0.9,2.8-1.8c0.7-0.8,1.3-2,1.6-3.5
			c0.4-1.5,0.5-3.5,0.5-5.9c0-2.2-0.2-4-0.5-5.4c-0.4-1.4-0.9-2.5-1.7-3.3c-0.8-0.8-1.7-1.3-2.8-1.6c-1.1-0.3-2.5-0.4-4.1-0.4h-4
			v22.4H81z"/>
		<path class="st1" d="M139,70.7c3.1,1.5,5.6,3.8,7.3,6.7c1.7,3,2.6,6.6,2.6,10.9v24.7c0,4-0.7,7.4-2.1,10.2
			c-1.4,2.8-3.6,4.9-6.4,6.4c-2.9,1.5-6.4,2.2-10.7,2.2h-18.9V68.4h17.1C132.1,68.4,135.9,69.2,139,70.7z M132.5,119.5
			c0.9-0.4,1.6-0.8,2.1-1.5c0.5-0.6,0.8-1.3,0.9-2.1c0.2-0.8,0.2-1.6,0.2-2.3V87.5c0-1.5-0.2-2.8-0.7-3.8c-0.5-1-1.2-1.8-2.2-2.3
			c-1-0.5-2.2-0.7-3.8-0.7h-5.2V120h4.9C130.3,120,131.5,119.8,132.5,119.5z"/>
		<path class="st1" d="M186.7,80.7h-17.1v12.6h11.9l-3.9,11.9h-8.1v26.6h-13.2V68.5h30.3V80.7z"/>
	</g>
	<g>
		<path class="st1" d="M70.8,138c0.6,0.2,1.2,0.5,1.7,0.9c0.5,0.4,0.9,1,1.2,1.8c0.3,0.8,0.4,1.8,0.4,3c0,1.3-0.1,2.3-0.4,3.1
			s-0.7,1.4-1.2,1.9c-0.5,0.4-1,0.7-1.6,0.9c-0.6,0.2-1.2,0.2-1.9,0.2h-1.7v4.3h-3.4v-16.5H69C69.6,137.7,70.2,137.8,70.8,138z
			 M68.3,146.7c0.4,0,0.8,0,1.1-0.1c0.3-0.1,0.6-0.2,0.7-0.5c0.2-0.2,0.3-0.5,0.4-0.9c0.1-0.4,0.1-0.9,0.1-1.5c0-0.6,0-1.1-0.1-1.4
			c-0.1-0.4-0.2-0.6-0.4-0.8c-0.2-0.2-0.4-0.3-0.7-0.4c-0.3-0.1-0.7-0.1-1.1-0.1h-1v5.8H68.3z"/>
		<path class="st1" d="M83,138c0.6,0.2,1.2,0.5,1.7,0.9c0.5,0.4,0.9,1,1.2,1.8c0.3,0.8,0.4,1.8,0.4,3c0,0.9-0.1,1.7-0.2,2.3
			s-0.4,1.1-0.6,1.5c-0.3,0.4-0.5,0.7-0.9,1l1.8,5.6h-3.6l-1.2-4.4c-0.1,0-0.2,0-0.2,0c-0.1,0-0.2,0-0.3,0c-0.1,0-0.2,0-0.2,0h-1.4
			v4.3H76v-16.5h5.1C81.7,137.7,82.4,137.8,83,138z M81.5,146.6c0.3-0.1,0.6-0.2,0.7-0.5c0.2-0.2,0.3-0.5,0.4-0.9
			c0.1-0.4,0.1-0.9,0.1-1.6c0-0.6,0-1-0.1-1.4c-0.1-0.4-0.2-0.6-0.4-0.8c-0.2-0.2-0.4-0.3-0.7-0.4s-0.7-0.1-1.1-0.1h-1v5.8h1
			C80.9,146.7,81.2,146.7,81.5,146.6z"/>
		<path class="st1" d="M88.2,137.7h7.9v3.2h-4.4v3.2h3.1l-1,3.1h-2.2l0,3.9H96v3.1h-7.8V137.7z"/>
		<path class="st1" d="M101.5,137.7l2.1,11.3l2-11.3h3.6l-3.7,16.5h-3.9l-3.7-16.5H101.5z"/>
		<path class="st1" d="M111,137.7h5v16.5h-3.4v-13.4l-1.6,0V137.7z"/>
		<path class="st1" d="M118,137.7h7.9v3.2h-4.4v3.2h3.1l-1,3.1h-2.2l0,3.9h4.4v3.1H118V137.7z"/>
		<path class="st1" d="M139.3,146.2l1.3-8.5h3.6l-3.1,16.5h-3.6l-1.6-6.9l-1.6,6.9h-3.6l-3.1-16.5h3.6l1.4,8.5l1.8-8.5h2.9
			L139.3,146.2z"/>
		<path class="st1" d="M163.9,154.2h-3.5l-4.7-9.1v9.1l-3.4,0v-16.5h3.4l4.7,9.4v-9.4h3.5V154.2z"/>
		<path class="st1" d="M167.2,138.6c0.9-0.8,2.1-1.3,3.7-1.3s2.8,0.4,3.6,1.3c0.9,0.9,1.3,2.1,1.3,3.6v7.5c0,1-0.2,1.8-0.6,2.5
			c-0.4,0.7-1,1.2-1.7,1.6c-0.7,0.4-1.6,0.6-2.6,0.6c-0.9,0-1.8-0.2-2.5-0.5c-0.8-0.3-1.4-0.9-1.8-1.6c-0.4-0.7-0.7-1.5-0.7-2.6
			v-7.6C165.8,140.6,166.3,139.4,167.2,138.6z M169.5,150.4c0.1,0.3,0.3,0.5,0.5,0.6c0.2,0.1,0.5,0.2,0.8,0.2c0.3,0,0.6-0.1,0.9-0.2
			c0.2-0.1,0.4-0.4,0.5-0.6c0.1-0.3,0.2-0.6,0.2-1v-6.7c0-0.5-0.1-0.9-0.2-1.2c-0.1-0.3-0.3-0.5-0.5-0.7c-0.2-0.1-0.5-0.2-0.9-0.2
			c-0.3,0-0.6,0.1-0.9,0.2c-0.2,0.1-0.4,0.4-0.5,0.7c-0.1,0.3-0.2,0.7-0.2,1.2v6.7C169.3,149.8,169.3,150.1,169.5,150.4z"/>
		<path class="st1" d="M183.6,154.2h-3.4v-13.3h-3v-3.2h9.5v3.2h-3.1V154.2z"/>
	</g>
	<g>
		<path class="st1" d="M73.7,181.6l-0.8-4.7H69l-0.8,4.7h-4.9l4.3-21.7h6.7l4.4,21.7H73.7z M72.3,172.7l-1.3-8.3l-1.3,8.3H72.3z"/>
		<path class="st1" d="M81.5,159.9l2.8,15l2.7-15h4.8l-4.9,21.7h-5.1l-4.8-21.7H81.5z"/>
		<path class="st1" d="M100.3,181.6l-0.8-4.7h-3.9l-0.8,4.7h-4.9l4.3-21.7h6.7l4.4,21.7H100.3z M98.9,172.7l-1.3-8.3l-1.3,8.3H98.9z
			"/>
		<path class="st1" d="M105.7,159.9h6.6v21.7h-4.5v-17.7l-2.1-0.1V159.9z"/>
		<path class="st1" d="M115,159.9h4.5v17.7h6.7v4.1H115V159.9z"/>
		<path class="st1" d="M139.1,181.6l-0.8-4.7h-3.9l-0.8,4.7h-4.9l4.3-21.7h6.7l4.4,21.7H139.1z M137.6,172.7l-1.3-8.3l-1.3,8.3
			H137.6z"/>
		<path class="st1" d="M156.3,160.5c0.9,0.4,1.6,1.1,2.1,1.9c0.5,0.8,0.7,1.8,0.7,3c0,0.7-0.1,1.3-0.3,1.9c-0.2,0.5-0.4,1-0.8,1.4
			c-0.3,0.4-0.7,0.8-1.2,1.1c0.6,0.3,1.2,0.7,1.7,1.1c0.5,0.5,0.9,1.1,1.1,1.8c0.3,0.7,0.4,1.5,0.4,2.5c0,1.3-0.3,2.4-0.8,3.4
			s-1.3,1.7-2.2,2.2c-1,0.5-2.2,0.8-3.6,0.8h-6.8v-21.7h6.5C154.3,159.9,155.4,160.1,156.3,160.5z M153.4,168.2
			c0.3-0.2,0.6-0.4,0.7-0.8c0.2-0.4,0.2-0.8,0.2-1.4c0-0.5-0.1-1-0.2-1.3c-0.1-0.3-0.4-0.6-0.7-0.7c-0.3-0.2-0.7-0.2-1.2-0.2h-1.2
			v4.7h1C152.7,168.5,153.1,168.4,153.4,168.2z M153.8,177.6c0.4-0.2,0.7-0.4,0.9-0.8c0.2-0.4,0.4-1,0.4-1.8c0-0.6-0.1-1.2-0.3-1.6
			c-0.2-0.4-0.5-0.7-0.9-0.9c-0.4-0.2-0.9-0.3-1.4-0.3h-1.4v5.6h1.6C153.1,177.8,153.4,177.8,153.8,177.6z"/>
		<path class="st1" d="M162.6,159.9h4.5v17.7h6.7v4.1h-11.2V159.9z"/>
		<path class="st1" d="M176.3,159.9h10.4v4.2h-5.9v4.3h4.1l-1.3,4.1h-2.9l0,5.1h5.8v4h-10.3V159.9z"/>
	</g>
</g>
</svg>
