<?xml version="1.0" encoding="utf-8"?>
<!-- Generator: Adobe Illustrator 27.9.1, SVG Export Plug-In . SVG Version: 6.00 Build 0)  -->
<svg version="1.1" id="Layer_1" xmlns:v="https://vecta.io/nano"
	 xmlns="http://www.w3.org/2000/svg" xmlns:xlink="http://www.w3.org/1999/xlink" x="0px" y="0px" viewBox="0 0 800.3 250"
	 style="enable-background:new 0 0 800.3 250;" xml:space="preserve">
<path d="M124.8,65c-4.1-1.6-14.7-1.3-19.6-0.7l-35.9,5.1c-4.3,9,8.3,53.8,10.8,53.7c0.7,0,0.8-5.3-0.1-7.7
	C71.6,90,68.8,76.8,69.8,70c25.5-0.5,33.5-4.7,53.6-0.2C125.3,70.2,126.6,65.7,124.8,65z M86.8,185c4.1,1.6,14.7,1.3,19.6,0.7
	l35.9-5.1c4.3-9-8.3-53.8-10.8-53.7c-0.7,0-0.8,5.3,0.1,7.7c8.6,25.4,11.4,38.6,10.3,45.4c-25.5,0.5-33.5,4.7-53.6,0.2
	C86.3,179.8,85,184.3,86.8,185z M167.2,111.2c-0.7-4.3-6.3-13.4-9.3-17.3l-22.5-28.4c-9.9,0.9-42.3,34.3-40.9,36.4
	c0.3,0.6,5-2,6.6-3.9c17.5-20.2,27.6-29.3,34-31.8c13.3,21.8,21,26.6,27.1,46.2C163,114.2,167.5,113.1,167.2,111.2z M44.4,138.8
	c0.7,4.3,6.3,13.4,9.3,17.3l22.5,28.4c9.9-0.9,42.3-34.3,40.9-36.4c-0.3-0.6-5,2-6.6,3.9c-17.5,20.2-27.6,29.3-34,31.8
	c-13.3-21.8-21-26.6-27.1-46.2C48.7,135.8,44.2,136.9,44.4,138.8z M148.4,171.4c3.4-2.7,8.5-12.1,10.3-16.6l13.5-33.6
	c-5.7-8.2-50.8-19.6-52-17.4c-0.3,0.6,4.2,3.3,6.7,3.8c26.3,5.2,39.1,9.4,44.5,13.6c-12.3,22.4-12.6,31.4-26.5,46.5
	C143.6,169.2,146.9,172.6,148.4,171.4L148.4,171.4z M63.3,78.6c-3.5,2.8-8.5,12.2-10.4,16.7l-13.5,33.6c5.7,8.2,50.8,19.6,52,17.4
	c0.3-0.6-4.2-3.3-6.7-3.8c-26.3-5.2-39.1-9.4-44.5-13.6c12.3-22.5,12.6-31.5,26.5-46.6C68.1,80.8,64.8,77.4,63.3,78.6z"/>
<circle cx="105.8" cy="125" r="9.7"/>
<path d="M207.6,82.9c0-20.6,12.8-43.8,44.4-43.8c13,0,24.8,4.1,23.6,8.1l-1.3,3.8c-3,9.7-9.4-4.2-28.4-4.2
	c-17.3,0-27.8,10.9-27.8,29.5c0,25.9,19.7,38.5,37.9,38.5c1.9,0,10.3-1.4,18.8-6.7c0.9-0.6,2.9,1.5,2.2,2.6
	c-5,7.2-20,13.5-22.9,13.5C234.7,124.1,207.6,112.6,207.6,82.9z"/>
<path d="M289.5,81.9c0-23.4,16.4-42.9,41.9-42.9c24.3,0,41.4,18.1,41.4,42.1c0,23.5-16.2,43-41.6,43
	C306.8,124.1,289.5,106,289.5,81.9z M335,117.7c11.3,0,27.7-6.9,27.7-31c0-24.7-17.1-41.3-35.4-41.3c-11.3,0-27.6,6.9-27.6,30.9
	C299.7,101,316.7,117.7,335,117.7z"/>
<path d="M392.8,92.1V54.5c0-7.7-4.3-9.8-9.7-10.5c-0.9-0.1-0.2-3.1,0.7-3.1h28.1c0.9,0,1.6,3,0.7,3.1c-4.5,0.7-9.2,2.3-9.2,10.5
	v38.1c0,16.9,9.9,25.2,23.7,25.2c14,0,24.5-8.4,24.5-25.2V54.5c0-7.8-4.4-9.7-10.1-10.5c-0.8-0.1-0.2-3.1,0.7-3.1h24.7
	c0.9,0,1.6,3,0.7,3.1c-4.9,0.7-9.5,2.3-9.5,10.5v37.6c0,21.2-13.7,32.1-31.7,32.1C410.7,124.1,392.8,115.5,392.8,92.1z"/>
<path d="M536.3,116.5L517.8,93c-4.7-5.8-11.6-7.3-20.5-7.4v23.1c0,7.9,5.2,9.3,13.3,10.5c0.8,0.1,0.2,3.1-0.7,3.1H478
	c-0.9,0-1.6-3-0.7-3.1c5.6-0.8,9.9-2.8,9.9-10.5V55.2c0-7.7-4.2-9.9-9.9-11.4c-0.9-0.2-0.4-3.3,0.7-3.1c4.7,0.6,9.9,0.7,13.1,0.7
	c7.1,0,13.8-0.7,19-0.7c15.7,0,28.4,6.7,28.4,21.5c0,14.3-12,20.7-20,21.3v0.8c4,0,6.4,1.5,11.2,7.6l18.4,23c3,3.7,5.7,4.9,9.1,4.9
	c0.9,0,0.8,2.8,0,3.1C551.3,125.4,542.1,124,536.3,116.5z M501.4,81c17.6,0,26.3-3.1,26.3-15.9c0-12.9-9-19.4-20.1-19.4
	c-7.2,0-10.2,2.9-10.2,9.5V81H501.4z"/>
<path d="M564.6,119.1c5.6-0.8,9.9-2.8,9.9-10.5V54.5c0-7.7-4.3-9.7-9.9-10.5c-0.9-0.1-0.2-3.1,0.7-3.1h28.4c0.9,0,1.6,3,0.7,3.1
	c-5.1,0.7-9.8,2.3-9.8,10.5v54.2c0,8.1,4.7,9.8,9.8,10.5c0.9,0.1,0.2,3.1-0.7,3.1h-28.4C564.4,122.3,563.7,119.3,564.6,119.1z"/>
<path d="M602.9,119.4c6.9-1.7,12.2-2.8,12.2-11.4V55.3c0-8.1-4.9-10.2-10-11.4c-0.9-0.2-0.5-3.4,0.7-3.3c8.6,0.6,19,0.7,29,0.7
	c10.6,0,18.8-0.5,27.6-0.7c2.7,0,2.7,1.9,2,4.4L661.4,56c-0.3,1.5-3.1,1.5-3.6,0c-1.5-5.3-5.4-9.7-20.5-9.7c-9.3,0-12.1,2.1-12.1,9
	v19.5c0,3,1.5,3.6,3.8,3.6h2.1c11,0,18.6-0.3,24-5.8c1-1,3.5-0.8,2.6,1.3l-7,14.7c-0.8,1.6-2.3,1.4-3.6-0.2
	c-2.8-3.4-8.8-4.8-16.3-4.8h-1.7c-2.3,0-3.8,0.6-3.8,3.6V108c0,6.7,3.5,8.6,13.7,8.6c20.1,0,25.2-7.1,28.3-12.4
	c0.9-1.6,3.5-1.4,3.5,0.8c0,7.1-4.7,17.3-11.6,17.6c-4.7-0.3-13.1-0.7-23.3-0.7c-10.8,0-21.4-0.3-32.2,0.7
	C602.4,122.6,602,119.6,602.9,119.4z"/>
<path d="M739.4,116.5L720.9,93c-4.7-5.8-11.6-7.3-20.5-7.4v23.1c0,7.9,5.2,9.3,13.3,10.5c0.8,0.1,0.2,3.1-0.7,3.1h-31.9
	c-0.9,0-1.6-3-0.7-3.1c5.6-0.8,9.9-2.8,9.9-10.5V55.2c0-7.7-4.2-9.9-9.9-11.4c-0.9-0.2-0.4-3.3,0.7-3.1c4.7,0.6,9.9,0.7,13.1,0.7
	c7.1,0,13.8-0.7,19-0.7c15.7,0,28.4,6.7,28.4,21.5c0,14.3-12,20.7-20,21.3v0.8c4,0,6.4,1.5,11.2,7.6l18.4,23c3,3.7,5.7,4.9,9.1,4.9
	c0.9,0,0.8,2.8,0,3.1C754.4,125.4,745.2,124,739.4,116.5z M704.5,81c17.6,0,26.3-3.1,26.3-15.9c0-12.9-9-19.4-20.1-19.4
	c-7.2,0-10.2,2.9-10.2,9.5V81H704.5z"/>
<path d="M208.3,204.8c3.7-0.7,6-1.8,9.4-9.5l15.8-36.8c3.7-8.1,4.8-11.6,4.8-15.2c0-0.6,6.5-2.1,6.7-1.4l22.8,53.3
	c3.3,7.6,5.5,9.1,9.3,9.6c1.2,0.2,0.9,3.6-0.2,3.6h-27.1c-1.3,0-1.2-3.4-0.3-3.6c3.3-0.7,7.3-1.7,3.8-9.5l-0.5-0.8
	c-0.9-2.4-1.9-2.7-4.4-2.7h-18.3c-2.8,0-3.7,0.3-4.8,2.7l-0.3,0.8c-3.1,7.6,0.5,9,4.8,9.5c1.3,0.2,0.9,3.6-0.3,3.6h-21.1
	C207.5,208.4,207.2,205,208.3,204.8z M231.7,185.7h15.2c1.1,0,2.3-0.3,1.8-1.6l-9.4-22.7l-9.5,22.7
	C229.2,185.5,230.5,185.7,231.7,185.7z"/>
<path d="M285.9,202.4l1-3.8c2.9-11,6.5,4.6,21.9,4.6c7.4,0,10-3.6,10-8.3c0-3.6-1.7-5.1-9.4-10l-6.7-4.7c-11-7.3-15.8-11-15.8-18.8
	c0-12.2,12.2-19.9,23.3-19.9c7,0,16.5,3.2,15.4,6.4l-1.2,3.7c-3.4,10.2-5.4-3.3-18.3-3.3c-5.8,0-9,2.8-9,7.5c0,4.4,2.6,6.6,8.8,10.5
	l8,5.3c10.6,6.8,14.9,11,14.9,18.2c0,12.1-11.6,20.2-24.2,20.2C297,209.9,284.7,206.8,285.9,202.4z"/>
<path d="M339.2,202.4l1-3.8c2.9-11,6.5,4.6,21.9,4.6c7.4,0,10-3.6,10-8.3c0-3.6-1.7-5.1-9.4-10l-6.7-4.7c-11-7.3-15.8-11-15.8-18.8
	c0-12.2,12.2-19.9,23.3-19.9c7,0,16.5,3.2,15.4,6.4l-1.2,3.7c-3.4,10.2-5.4-3.3-18.3-3.3c-5.8,0-9,2.8-9,7.5c0,4.4,2.6,6.6,8.8,10.5
	l8,5.3c10.6,6.8,14.9,11,14.9,18.2c0,12.1-11.6,20.2-24.2,20.2C350.3,209.9,337.9,206.8,339.2,202.4z"/>
<path d="M390.8,204.7c5.1-0.7,7.6-2.8,7.6-8.4v-41.4c0-5.6-2.5-7.8-7.6-8.4c-0.7-0.1-0.2-3.7,0.6-3.7h27.9c0.7,0,1.3,3.6,0.6,3.7
	c-3.9,0.6-7.7,1.9-7.7,8.4v41.4c0,6.6,3.7,7.9,7.7,8.4c0.7,0.1,0.2,3.7-0.6,3.7h-27.9C390.7,208.4,390.1,204.8,390.8,204.7z"/>
<path d="M429.7,202.4l1-3.8c2.9-11,6.5,4.6,21.9,4.6c7.4,0,10-3.6,10-8.3c0-3.6-1.7-5.1-9.4-10l-6.7-4.7c-11-7.3-15.8-11-15.8-18.8
	c0-12.2,12.2-19.9,23.3-19.9c7,0,16.5,3.2,15.4,6.4l-1.2,3.7c-3.4,10.2-5.4-3.3-18.3-3.3c-5.8,0-9,2.8-9,7.5c0,4.4,2.6,6.6,8.8,10.5
	l8,5.3c10.6,6.8,14.9,11,14.9,18.2c0,12.1-11.6,20.2-24.2,20.2C440.8,209.9,428.5,206.8,429.7,202.4z"/>
<path d="M493,204.8c6.6-0.9,11-2.2,11-7.2v-44.9c0-2.5-0.8-3.2-3.1-3.2h-2c-8,0-14.2,2.7-15.6,6.1c-0.8,2.2-4.6,1.8-4.1,0
	c0.9-3,1.7-6.6,2.2-11.8c0.2-2.1,1.1-1.9,2.9-1.7c5.5,0.6,8.3,0.7,26.9,0.7c18.5,0,23.8-0.2,29.8-0.7c1.7-0.2,3.3-0.4,2.6,1.7
	c-1.4,4.6-2.4,8.7-3,11.8c-0.3,1.6-3.1,1.9-3.6,0c-1-3.2-5.5-6.1-13.1-6.1h-2.4c-2.2,0-3.7,0.7-3.7,3.2v44.9c0,5.1,4.4,6.3,11,7.2
	c0.7,0.1,0.2,3.6-0.7,3.6h-34.5C492.8,208.4,492.1,204.9,493,204.8z"/>
<path d="M541.7,204.8c3.7-0.7,6-1.8,9.4-9.5l15.8-36.8c3.6-8.1,4.8-11.6,4.8-15.2c0-0.6,6.5-2.1,6.7-1.4l22.8,53.3
	c3.3,7.6,5.5,9.1,9.3,9.6c1.2,0.2,0.9,3.6-0.2,3.6h-27.1c-1.3,0-1.2-3.4-0.3-3.6c3.3-0.7,7.3-1.7,3.8-9.5l-0.5-0.8
	c-0.9-2.4-1.9-2.7-4.4-2.7h-18.3c-2.8,0-3.7,0.3-4.8,2.7l-0.3,0.8c-3.1,7.6,0.5,9,4.8,9.5c1.3,0.2,0.9,3.6-0.3,3.6H542
	C540.9,208.4,540.6,205,541.7,204.8z M565.1,185.7h15.2c1.1,0,2.3-0.3,1.8-1.6l-9.4-22.7l-9.5,22.7
	C562.6,185.5,563.9,185.7,565.1,185.7z"/>
<path d="M676.2,207.6L632.3,164v31.8c0,6.6,3.8,7.4,10,8.9c0.7,0.2,0.4,3.7-0.6,3.7h-24.2c-0.7,0-1.3-3.4-0.4-3.7
	c3.2-1.5,7.5-1.6,7.5-8.9v-35c0-7.7-1.6-9.6-3-12.6c-1.2-1.7-2.2-2.8-2.2-3.4c0-0.7,0.5-2,2.2-2h7.5c0.8,0,1.5,0.1,2.2,0.8l42.9,43
	v-31.5c0-6.7-4.4-7.3-10-8.7c-0.7-0.2-0.4-3.7,0.6-3.7H689c0.7,0,1,3.5,0.4,3.7c-4,1.4-7.5,2-7.5,8.7v35.2c0,6.7,0.3,13.7,1.1,17.2
	c0.3,1.3-1.1,1.7-3.1,1.7C678.2,209.3,677.3,208.8,676.2,207.6z"/>
<path d="M710.2,204.8c6.6-0.9,11-2.2,11-7.2v-44.9c0-2.5-0.8-3.2-3.1-3.2h-2c-8,0-14.2,2.7-15.6,6.1c-0.8,2.2-4.6,1.8-4.1,0
	c0.9-3,1.7-6.6,2.2-11.8c0.2-2.1,1.1-1.9,2.9-1.7c5.5,0.6,8.3,0.7,26.9,0.7c18.5,0,23.8-0.2,29.8-0.7c1.7-0.2,3.3-0.4,2.6,1.7
	c-1.4,4.6-2.4,8.7-3,11.8c-0.3,1.6-3.1,1.9-3.6,0c-1-3.2-5.5-6.1-13.1-6.1h-2.4c-2.2,0-3.7,0.7-3.7,3.2v44.9c0,5.1,4.4,6.3,11,7.2
	c0.7,0.1,0.2,3.6-0.7,3.6h-34.5C710,208.4,709.4,204.9,710.2,204.8z"/>
</svg>
