<svg xmlns="http://www.w3.org/2000/svg" viewBox="0 0 800 250"><path d="M124.8 65c-4.1-1.6-14.7-1.3-19.6-.7l-35.9 5.1c-4.3 9 8.3 53.8 10.8 53.7.7 0 .8-5.3-.1-7.7C71.6 90 68.8 76.8 69.8 70c25.5-.5 33.5-4.7 53.6-.2 1.9.4 3.2-4.1 1.4-4.8zm-38 120c4.1 1.6 14.7 1.3 19.6.7l35.9-5.1c4.3-9-8.3-53.8-10.8-53.7-.7 0-.8 5.3.1 7.7 8.6 25.4 11.4 38.6 10.3 45.4-25.5.5-33.5 4.7-53.6.2-2-.4-3.3 4.1-1.5 4.8zm80.4-73.8c-.7-4.3-6.3-13.4-9.3-17.3l-22.5-28.4c-9.9.9-42.3 34.3-40.9 36.4.3.6 5-2 6.6-3.9 17.5-20.2 27.6-29.3 34-31.8 13.3 21.8 21 26.6 27.1 46.2.8 1.8 5.3.7 5-1.2zM44.4 138.8c.7 4.3 6.3 13.4 9.3 17.3l22.5 28.4c9.9-.9 42.3-34.3 40.9-36.4-.3-.6-5 2-6.6 3.9-17.5 20.2-27.6 29.3-34 31.8-13.3-21.8-21-26.6-27.1-46.2-.7-1.8-5.2-.7-5 1.2zm104 32.6c3.4-2.7 8.5-12.1 10.3-16.6l13.5-33.6c-5.7-8.2-50.8-19.6-52-17.4-.3.6 4.2 3.3 6.7 3.8 26.3 5.2 39.1 9.4 44.5 13.6-12.3 22.4-12.6 31.4-26.5 46.5-1.3 1.5 2 4.9 3.5 3.7zM63.3 78.6c-3.5 2.8-8.5 12.2-10.4 16.7l-13.5 33.6c5.7 8.2 50.8 19.6 52 17.4.3-.6-4.2-3.3-6.7-3.8-26.3-5.2-39.1-9.4-44.5-13.6 12.3-22.5 12.6-31.5 26.5-46.6 1.4-1.5-1.9-4.9-3.4-3.7z"/><circle cx="105.8" cy="125" r="9.7"/><path d="M207.6 82.9c0-20.6 12.8-43.8 44.4-43.8 13 0 24.8 4.1 23.6 8.1l-1.3 3.8c-3 9.7-9.4-4.2-28.4-4.2-17.3 0-27.8 10.9-27.8 29.5 0 25.9 19.7 38.5 37.9 38.5 1.9 0 10.3-1.4 18.8-6.7.9-.6 2.9 1.5 2.2 2.6-5 7.2-20 13.5-22.9 13.5-19.4-.1-46.5-11.6-46.5-41.3zM289.5 81.9c0-23.4 16.4-42.9 41.9-42.9 24.3 0 41.4 18.1 41.4 42.1 0 23.5-16.2 43-41.6 43-24.4 0-41.7-18.1-41.7-42.2zm45.5 35.8c11.3 0 27.7-6.9 27.7-31 0-24.7-17.1-41.3-35.4-41.3-11.3 0-27.6 6.9-27.6 30.9 0 24.7 17 41.4 35.3 41.4zM392.8 92.1V54.5c0-7.7-4.3-9.8-9.7-10.5-.9-.1-.2-3.1.7-3.1h28.1c.9 0 1.6 3 .7 3.1-4.5.7-9.2 2.3-9.2 10.5v38.1c0 16.9 9.9 25.2 23.7 25.2 14 0 24.5-8.4 24.5-25.2V54.5c0-7.8-4.4-9.7-10.1-10.5-.8-.1-.2-3.1.7-3.1h24.7c.9 0 1.6 3 .7 3.1-4.9.7-9.5 2.3-9.5 10.5v37.6c0 21.2-13.7 32.1-31.7 32.1-15.7-.1-33.6-8.7-33.6-32.1zM536.3 116.5L517.8 93c-4.7-5.8-11.6-7.3-20.5-7.4v23.1c0 7.9 5.2 9.3 13.3 10.5.8.1.2 3.1-.7 3.1H478c-.9 0-1.6-3-.7-3.1 5.6-.8 9.9-2.8 9.9-10.5V55.2c0-7.7-4.2-9.9-9.9-11.4-.9-.2-.4-3.3.7-3.1 4.7.6 9.9.7 13.1.7 7.1 0 13.8-.7 19-.7 15.7 0 28.4 6.7 28.4 21.5 0 14.3-12 20.7-20 21.3v.8c4 0 6.4 1.5 11.2 7.6l18.4 23c3 3.7 5.7 4.9 9.1 4.9.9 0 .8 2.8 0 3.1-5.9 2.5-15.1 1.1-20.9-6.4zM501.4 81c17.6 0 26.3-3.1 26.3-15.9 0-12.9-9-19.4-20.1-19.4-7.2 0-10.2 2.9-10.2 9.5V81h4zM564.6 119.1c5.6-.8 9.9-2.8 9.9-10.5V54.5c0-7.7-4.3-9.7-9.9-10.5-.9-.1-.2-3.1.7-3.1h28.4c.9 0 1.6 3 .7 3.1-5.1.7-9.8 2.3-9.8 10.5v54.2c0 8.1 4.7 9.8 9.8 10.5.9.1.2 3.1-.7 3.1h-28.4c-.9 0-1.6-3-.7-3.2zM602.9 119.4c6.9-1.7 12.2-2.8 12.2-11.4V55.3c0-8.1-4.9-10.2-10-11.4-.9-.2-.5-3.4.7-3.3 8.6.6 19 .7 29 .7 10.6 0 18.8-.5 27.6-.7 2.7 0 2.7 1.9 2 4.4l-3 11c-.3 1.5-3.1 1.5-3.6 0-1.5-5.3-5.4-9.7-20.5-9.7-9.3 0-12.1 2.1-12.1 9v19.5c0 3 1.5 3.6 3.8 3.6h2.1c11 0 18.6-.3 24-5.8 1-1 3.5-.8 2.6 1.3l-7 14.7c-.8 1.6-2.3 1.4-3.6-.2-2.8-3.4-8.8-4.8-16.3-4.8h-1.7c-2.3 0-3.8.6-3.8 3.6V108c0 6.7 3.5 8.6 13.7 8.6 20.1 0 25.2-7.1 28.3-12.4.9-1.6 3.5-1.4 3.5.8 0 7.1-4.7 17.3-11.6 17.6-4.7-.3-13.1-.7-23.3-.7-10.8 0-21.4-.3-32.2.7-1.3 0-1.7-3-.8-3.2zM739.4 116.5L720.9 93c-4.7-5.8-11.6-7.3-20.5-7.4v23.1c0 7.9 5.2 9.3 13.3 10.5.8.1.2 3.1-.7 3.1h-31.9c-.9 0-1.6-3-.7-3.1 5.6-.8 9.9-2.8 9.9-10.5V55.2c0-7.7-4.2-9.9-9.9-11.4-.9-.2-.4-3.3.7-3.1 4.7.6 9.9.7 13.1.7 7.1 0 13.8-.7 19-.7 15.7 0 28.4 6.7 28.4 21.5 0 14.3-12 20.7-20 21.3v.8c4 0 6.4 1.5 11.2 7.6l18.4 23c3 3.7 5.7 4.9 9.1 4.9.9 0 .8 2.8 0 3.1-5.9 2.5-15.1 1.1-20.9-6.4zM704.5 81c17.6 0 26.3-3.1 26.3-15.9 0-12.9-9-19.4-20.1-19.4-7.2 0-10.2 2.9-10.2 9.5V81h4zM208.3 204.8c3.7-.7 6-1.8 9.4-9.5l15.8-36.8c3.7-8.1 4.8-11.6 4.8-15.2 0-.6 6.5-2.1 6.7-1.4l22.8 53.3c3.3 7.6 5.5 9.1 9.3 9.6 1.2.2.9 3.6-.2 3.6h-27.1c-1.3 0-1.2-3.4-.3-3.6 3.3-.7 7.3-1.7 3.8-9.5l-.5-.8c-.9-2.4-1.9-2.7-4.4-2.7h-18.3c-2.8 0-3.7.3-4.8 2.7l-.3.8c-3.1 7.6.5 9 4.8 9.5 1.3.2.9 3.6-.3 3.6h-21.1c-.9 0-1.2-3.4-.1-3.6zm23.4-19.1h15.2c1.1 0 2.3-.3 1.8-1.6l-9.4-22.7-9.5 22.7c-.6 1.4.7 1.6 1.9 1.6zM285.9 202.4l1-3.8c2.9-11 6.5 4.6 21.9 4.6 7.4 0 10-3.6 10-8.3 0-3.6-1.7-5.1-9.4-10l-6.7-4.7c-11-7.3-15.8-11-15.8-18.8 0-12.2 12.2-19.9 23.3-19.9 7 0 16.5 3.2 15.4 6.4l-1.2 3.7c-3.4 10.2-5.4-3.3-18.3-3.3-5.8 0-9 2.8-9 7.5 0 4.4 2.6 6.6 8.8 10.5l8 5.3c10.6 6.8 14.9 11 14.9 18.2 0 12.1-11.6 20.2-24.2 20.2-7.6-.1-19.9-3.2-18.7-7.6zM339.2 202.4l1-3.8c2.9-11 6.5 4.6 21.9 4.6 7.4 0 10-3.6 10-8.3 0-3.6-1.7-5.1-9.4-10l-6.7-4.7c-11-7.3-15.8-11-15.8-18.8 0-12.2 12.2-19.9 23.3-19.9 7 0 16.5 3.2 15.4 6.4l-1.2 3.7c-3.4 10.2-5.4-3.3-18.3-3.3-5.8 0-9 2.8-9 7.5 0 4.4 2.6 6.6 8.8 10.5l8 5.3c10.6 6.8 14.9 11 14.9 18.2 0 12.1-11.6 20.2-24.2 20.2-7.6-.1-20-3.2-18.7-7.6zM390.8 204.7c5.1-.7 7.6-2.8 7.6-8.4v-41.4c0-5.6-2.5-7.8-7.6-8.4-.7-.1-.2-3.7.6-3.7h27.9c.7 0 1.3 3.6.6 3.7-3.9.6-7.7 1.9-7.7 8.4v41.4c0 6.6 3.7 7.9 7.7 8.4.7.1.2 3.7-.6 3.7h-27.9c-.7 0-1.3-3.6-.6-3.7zM429.7 202.4l1-3.8c2.9-11 6.5 4.6 21.9 4.6 7.4 0 10-3.6 10-8.3 0-3.6-1.7-5.1-9.4-10l-6.7-4.7c-11-7.3-15.8-11-15.8-18.8 0-12.2 12.2-19.9 23.3-19.9 7 0 16.5 3.2 15.4 6.4l-1.2 3.7c-3.4 10.2-5.4-3.3-18.3-3.3-5.8 0-9 2.8-9 7.5 0 4.4 2.6 6.6 8.8 10.5l8 5.3c10.6 6.8 14.9 11 14.9 18.2 0 12.1-11.6 20.2-24.2 20.2-7.6-.1-19.9-3.2-18.7-7.6zM493 204.8c6.6-.9 11-2.2 11-7.2v-44.9c0-2.5-.8-3.2-3.1-3.2h-2c-8 0-14.2 2.7-15.6 6.1-.8 2.2-4.6 1.8-4.1 0 .9-3 1.7-6.6 2.2-11.8.2-2.1 1.1-1.9 2.9-1.7 5.5.6 8.3.7 26.9.7 18.5 0 23.8-.2 29.8-.7 1.7-.2 3.3-.4 2.6 1.7-1.4 4.6-2.4 8.7-3 11.8-.3 1.6-3.1 1.9-3.6 0-1-3.2-5.5-6.1-13.1-6.1h-2.4c-2.2 0-3.7.7-3.7 3.2v44.9c0 5.1 4.4 6.3 11 7.2.7.1.2 3.6-.7 3.6h-34.5c-.8 0-1.5-3.5-.6-3.6zM541.7 204.8c3.7-.7 6-1.8 9.4-9.5l15.8-36.8c3.6-8.1 4.8-11.6 4.8-15.2 0-.6 6.5-2.1 6.7-1.4l22.8 53.3c3.3 7.6 5.5 9.1 9.3 9.6 1.2.2.9 3.6-.2 3.6h-27.1c-1.3 0-1.2-3.4-.3-3.6 3.3-.7 7.3-1.7 3.8-9.5l-.5-.8c-.9-2.4-1.9-2.7-4.4-2.7h-18.3c-2.8 0-3.7.3-4.8 2.7l-.3.8c-3.1 7.6.5 9 4.8 9.5 1.3.2.9 3.6-.3 3.6H542c-1.1 0-1.4-3.4-.3-3.6zm23.4-19.1h15.2c1.1 0 2.3-.3 1.8-1.6l-9.4-22.7-9.5 22.7c-.6 1.4.7 1.6 1.9 1.6zM676.2 207.6L632.3 164v31.8c0 6.6 3.8 7.4 10 8.9.7.2.4 3.7-.6 3.7h-24.2c-.7 0-1.3-3.4-.4-3.7 3.2-1.5 7.5-1.6 7.5-8.9v-35c0-7.7-1.6-9.6-3-12.6-1.2-1.7-2.2-2.8-2.2-3.4 0-.7.5-2 2.2-2h7.5c.8 0 1.5.1 2.2.8l42.9 43v-31.5c0-6.7-4.4-7.3-10-8.7-.7-.2-.4-3.7.6-3.7H689c.7 0 1 3.5.4 3.7-4 1.4-7.5 2-7.5 8.7v35.2c0 6.7.3 13.7 1.1 17.2.3 1.3-1.1 1.7-3.1 1.7-1.7.1-2.6-.4-3.7-1.6zM710.2 204.8c6.6-.9 11-2.2 11-7.2v-44.9c0-2.5-.8-3.2-3.1-3.2h-2c-8 0-14.2 2.7-15.6 6.1-.8 2.2-4.6 1.8-4.1 0 .9-3 1.7-6.6 2.2-11.8.2-2.1 1.1-1.9 2.9-1.7 5.5.6 8.3.7 26.9.7 18.5 0 23.8-.2 29.8-.7 1.7-.2 3.3-.4 2.6 1.7-1.4 4.6-2.4 8.7-3 11.8-.3 1.6-3.1 1.9-3.6 0-1-3.2-5.5-6.1-13.1-6.1h-2.4c-2.2 0-3.7.7-3.7 3.2v44.9c0 5.1 4.4 6.3 11 7.2.7.1.2 3.6-.7 3.6h-34.5c-.8 0-1.4-3.5-.6-3.6z"/></svg>