<svg version="1.1" id="prefix__Layer_1" xmlns="http://www.w3.org/2000/svg" x="0" y="0" viewBox="0 0 250 250" xml:space="preserve"><style>.prefix__st1{fill:#878787}</style><path opacity=".01" fill="#353535" d="M0 0h250v250H0z"/><path class="prefix__st1" d="M80.5 146.1h-5l-6.7-12.9v13h-4.9v-23.5h4.9l6.8 13.4v-13.4h4.9v23.4zM85.2 123.8c1.3-1.2 3-1.8 5.2-1.8s3.9.6 5.2 1.9c1.2 1.3 1.8 3 1.8 5.2v10.8c0 1.4-.3 2.5-.9 3.5-.6 1-1.4 1.8-2.5 2.3-1.1.5-2.3.8-3.7.8-1.3 0-2.5-.2-3.6-.7-1.1-.5-1.9-1.2-2.6-2.2-.6-1-1-2.2-1-3.7v-10.8c.2-2.3.8-4.1 2.1-5.3zm3.2 16.9c.2.4.4.7.7.9.3.2.7.3 1.2.3s.9-.1 1.2-.3c.3-.2.6-.5.7-.9.2-.4.3-.9.3-1.4v-9.5c0-.7-.1-1.3-.2-1.7-.1-.4-.4-.8-.7-1-.3-.2-.8-.3-1.3-.3s-.9.1-1.2.3c-.3.2-.6.5-.7 1-.2.4-.2 1-.2 1.8v9.5c0 .4.1.9.2 1.3zM108.7 122.6h7.2v23.5H111v-19.2l-2.3-.1v-4.2zM127.7 136.3l4.2-13.7h4.8l.5 23.5h-4.9v-10.4l-3 10.4H126l-2.9-10.4v10.4h-4.9l.5-23.5h4.9l4.1 13.7zM150.9 146.1l-.9-5h-4.2l-.9 5h-5.3l4.7-23.5h7.2l4.8 23.5h-5.4zm-1.5-9.6l-1.4-9-1.4 9h2.8zM167.8 127.1c-.3-.1-.7-.1-1-.2-.3 0-.6-.1-.9-.1-.6 0-1.1.1-1.6.2-.5.2-.8.4-1.1.8-.3.4-.4.9-.4 1.6v10c0 .6.1 1 .2 1.4.2.4.4.6.7.8.3.2.7.3 1.2.3.3 0 .6-.1.8-.2.3-.1.5-.3.6-.5.2-.2.3-.5.4-.8.1-.3.2-.7.2-1v-.4h-1.4l-.7-4.4h7.1v11.5h-3l-.2-.7c-.3.3-.7.5-1.2.7-.5.1-.9.2-1.3.3-.4 0-.8.1-1.1.1-1.3 0-2.5-.2-3.5-.7-1.1-.5-1.9-1.2-2.6-2.2-.6-1-1-2.2-1-3.8v-10.7c0-1.6.3-2.9.9-3.9.6-1 1.4-1.8 2.5-2.3 1.1-.5 2.3-.8 3.8-.8.6 0 1.2 0 1.8.1.6.1 1.1.2 1.6.4l1.5.6-1.2 4c-.5 0-.8-.1-1.1-.1zM174.5 122.6h11.3v4.5h-6.3v4.6h4.4l-1.4 4.5h-3.1v5.5h6.3v4.4h-11.2v-23.5zM73.7 173l-.8-4.7H69l-.8 4.7h-4.9l4.3-21.7h6.7l4.4 21.7h-5zm-1.4-8.9l-1.3-8.3-1.3 8.3h2.6zM81.5 151.3l2.8 14.9 2.7-14.9h4.8l-5 21.7h-5.1l-4.8-21.7h4.6zM100.3 173l-.8-4.7h-3.9l-.8 4.7h-4.9l4.3-21.7h6.7l4.4 21.7h-5zm-1.4-8.9l-1.3-8.3-1.3 8.3h2.6zM105.7 151.3h6.6V173h-4.5v-17.7l-2.1-.1v-3.9zM115 151.3h4.5v17.6h6.7v4.1H115v-21.7zM139 173l-.8-4.7h-3.9l-.8 4.7h-4.9l4.3-21.7h6.7L144 173h-5zm-1.4-8.9l-1.3-8.3-1.3 8.3h2.6zM156.2 151.9c.9.4 1.6 1.1 2.1 1.9.5.8.7 1.8.7 3 0 .7-.1 1.3-.3 1.9-.2.5-.4 1-.8 1.4-.3.4-.7.8-1.2 1.1.6.3 1.2.7 1.7 1.1.5.5.9 1.1 1.1 1.8.3.7.4 1.5.4 2.5 0 1.3-.3 2.4-.8 3.4s-1.3 1.7-2.2 2.2c-1 .5-2.2.8-3.6.8h-6.8v-21.7h6.5c1.3 0 2.3.2 3.2.6zm-2.8 7.8c.3-.2.6-.4.7-.8.2-.4.2-.8.2-1.4 0-.5-.1-1-.2-1.3-.1-.3-.4-.6-.7-.7-.3-.2-.7-.2-1.2-.2H151v4.7h1c.7-.1 1.1-.2 1.4-.3zm.4 9.3c.4-.2.7-.4.9-.8.2-.4.4-1 .4-1.8 0-.6-.1-1.2-.3-1.6-.2-.4-.5-.7-.9-.9-.4-.2-.9-.3-1.4-.3h-1.4v5.6h1.6c.4.1.7 0 1.1-.2zM162.6 151.3h4.5v17.6h6.7v4.1h-11.2v-21.7zM176.3 151.3h10.4v4.2h-5.9v4.3h4.1l-1.3 4.1h-2.9v5.1h5.8v4h-10.3v-21.7zM109.4 77.3c-.6-.5-1.4-.3-1.9.2s-.3 1.4.2 1.9l32.9 25.8c.6.5 1.4.3 1.9-.2.5-.6.3-1.4-.2-1.9l-3.1-2.4V85.9c0-2-1.6-3.6-3.6-3.6h-4.1l-.6-1.7c-.4-1.1-1.4-1.8-2.5-1.8h-6.8c-1.1 0-2.2.7-2.5 1.8l-.6 1.7h-2.7l-6.4-5zM123.1 88c.6-.2 1.2-.4 1.9-.4 2.9 0 5.3 2.4 5.3 5.3v.7l-7.2-5.6zm11.2 15.6l-7.3-5.7c-.6.3-1.3.4-2 .4-2.9 0-5.3-2.4-5.3-5.3 0-.3 0-.5.1-.8l-8.9-7c0 .2-.1.5-.1.7v14.2c0 2 1.6 3.6 3.6 3.6h19.9z"/></svg>