<svg version="1.1" id="prefix__Layer_1" xmlns="http://www.w3.org/2000/svg" x="0" y="0" viewBox="0 0 250 250" xml:space="preserve"><style>.prefix__st1{fill:#878787}</style><path opacity=".01" fill="#353535" d="M0 0h250v250H0z"/><path class="prefix__st1" d="M90.7 69.6c2.4.7 4.5 1.9 6.4 3.6 1.9 1.7 3.4 4 4.6 7 1.2 3 1.7 6.8 1.7 11.4 0 4.9-.6 9-1.7 12.1-1.1 3.1-2.7 5.5-4.6 7.2-1.9 1.7-4 2.8-6.3 3.5-2.3.6-4.7.9-7.2.9H77v16.6H63.8V68.5h19.7c2.4 0 4.8.4 7.2 1.1zM81 103.3c1.6 0 2.9-.2 4.1-.5 1.2-.4 2.1-.9 2.8-1.8.7-.8 1.3-2 1.6-3.5.4-1.5.5-3.5.5-5.9 0-2.2-.2-4-.5-5.4-.4-1.4-.9-2.5-1.7-3.3-.8-.8-1.7-1.3-2.8-1.6-1.1-.3-2.5-.4-4.1-.4h-4v22.4H81zM139 70.7c3.1 1.5 5.6 3.8 7.3 6.7 1.7 3 2.6 6.6 2.6 10.9V113c0 4-.7 7.4-2.1 10.2-1.4 2.8-3.6 4.9-6.4 6.4-2.9 1.5-6.4 2.2-10.7 2.2h-18.9V68.4h17.1c4.2 0 8 .8 11.1 2.3zm-6.5 48.8c.9-.4 1.6-.8 2.1-1.5.5-.6.8-1.3.9-2.1.2-.8.2-1.6.2-2.3V87.5c0-1.5-.2-2.8-.7-3.8-.5-1-1.2-1.8-2.2-2.3-1-.5-2.2-.7-3.8-.7h-5.2V120h4.9c1.6 0 2.8-.2 3.8-.5zM186.7 80.7h-17.1v12.6h11.9l-3.9 11.9h-8.1v26.6h-13.2V68.5h30.3v12.2z"/><g><path class="prefix__st1" d="M70.8 138c.6.2 1.2.5 1.7.9s.9 1 1.2 1.8c.3.8.4 1.8.4 3 0 1.3-.1 2.3-.4 3.1s-.7 1.4-1.2 1.9c-.5.4-1 .7-1.6.9-.6.2-1.2.2-1.9.2h-1.7v4.3h-3.4v-16.5H69c.6.1 1.2.2 1.8.4zm-2.5 8.7c.4 0 .8 0 1.1-.1.3-.1.6-.2.7-.5.2-.2.3-.5.4-.9.1-.4.1-.9.1-1.5s0-1.1-.1-1.4c-.1-.4-.2-.6-.4-.8-.2-.2-.4-.3-.7-.4-.3-.1-.7-.1-1.1-.1h-1v5.8h1zM83 138c.6.2 1.2.5 1.7.9s.9 1 1.2 1.8c.3.8.4 1.8.4 3 0 .9-.1 1.7-.2 2.3s-.4 1.1-.6 1.5c-.3.4-.5.7-.9 1l1.8 5.6h-3.6l-1.2-4.4H79.5v4.3H76v-16.5h5.1c.6.2 1.3.3 1.9.5zm-1.5 8.6c.3-.1.6-.2.7-.5.2-.2.3-.5.4-.9.1-.4.1-.9.1-1.6 0-.6 0-1-.1-1.4-.1-.4-.2-.6-.4-.8-.2-.2-.4-.3-.7-.4s-.7-.1-1.1-.1h-1v5.8h1c.5 0 .8 0 1.1-.1zM88.2 137.7h7.9v3.2h-4.4v3.2h3.1l-1 3.1h-2.2v3.9H96v3.1h-7.8v-16.5zM101.5 137.7l2.1 11.3 2-11.3h3.6l-3.7 16.5h-3.9l-3.7-16.5h3.6zM111 137.7h5v16.5h-3.4v-13.4H111v-3.1zM118 137.7h7.9v3.2h-4.4v3.2h3.1l-1 3.1h-2.2v3.9h4.4v3.1H118v-16.5zM139.3 146.2l1.3-8.5h3.6l-3.1 16.5h-3.6l-1.6-6.9-1.6 6.9h-3.6l-3.1-16.5h3.6l1.4 8.5 1.8-8.5h2.9l2 8.5zM163.9 154.2h-3.5l-4.7-9.1v9.1h-3.4v-16.5h3.4l4.7 9.4v-9.4h3.5v16.5zM167.2 138.6c.9-.8 2.1-1.3 3.7-1.3s2.8.4 3.6 1.3c.9.9 1.3 2.1 1.3 3.6v7.5c0 1-.2 1.8-.6 2.5-.4.7-1 1.2-1.7 1.6-.7.4-1.6.6-2.6.6-.9 0-1.8-.2-2.5-.5-.8-.3-1.4-.9-1.8-1.6-.4-.7-.7-1.5-.7-2.6v-7.6c-.1-1.5.4-2.7 1.3-3.5zm2.3 11.8c.1.3.3.5.5.6.2.1.5.2.8.2.3 0 .6-.1.9-.2.2-.1.4-.4.5-.6.1-.3.2-.6.2-1v-6.7c0-.5-.1-.9-.2-1.2-.1-.3-.3-.5-.5-.7-.2-.1-.5-.2-.9-.2-.3 0-.6.1-.9.2-.2.1-.4.4-.5.7-.1.3-.2.7-.2 1.2v6.7c.1.4.1.7.3 1zM183.6 154.2h-3.4v-13.3h-3v-3.2h9.5v3.2h-3.1v13.3z"/></g><g><path class="prefix__st1" d="M73.7 181.6l-.8-4.7H69l-.8 4.7h-4.9l4.3-21.7h6.7l4.4 21.7h-5zm-1.4-8.9l-1.3-8.3-1.3 8.3h2.6zM81.5 159.9l2.8 15 2.7-15h4.8l-4.9 21.7h-5.1L77 159.9h4.5zM100.3 181.6l-.8-4.7h-3.9l-.8 4.7h-4.9l4.3-21.7h6.7l4.4 21.7h-5zm-1.4-8.9l-1.3-8.3-1.3 8.3h2.6zM105.7 159.9h6.6v21.7h-4.5v-17.7l-2.1-.1v-3.9zM115 159.9h4.5v17.7h6.7v4.1H115v-21.8zM139.1 181.6l-.8-4.7h-3.9l-.8 4.7h-4.9l4.3-21.7h6.7l4.4 21.7h-5zm-1.5-8.9l-1.3-8.3-1.3 8.3h2.6zM156.3 160.5c.9.4 1.6 1.1 2.1 1.9.5.8.7 1.8.7 3 0 .7-.1 1.3-.3 1.9-.2.5-.4 1-.8 1.4-.3.4-.7.8-1.2 1.1.6.3 1.2.7 1.7 1.1.5.5.9 1.1 1.1 1.8.3.7.4 1.5.4 2.5 0 1.3-.3 2.4-.8 3.4s-1.3 1.7-2.2 2.2c-1 .5-2.2.8-3.6.8h-6.8v-21.7h6.5c1.2 0 2.3.2 3.2.6zm-2.9 7.7c.3-.2.6-.4.7-.8.2-.4.2-.8.2-1.4 0-.5-.1-1-.2-1.3-.1-.3-.4-.6-.7-.7-.3-.2-.7-.2-1.2-.2H151v4.7h1c.7 0 1.1-.1 1.4-.3zm.4 9.4c.4-.2.7-.4.9-.8.2-.4.4-1 .4-1.8 0-.6-.1-1.2-.3-1.6-.2-.4-.5-.7-.9-.9-.4-.2-.9-.3-1.4-.3h-1.4v5.6h1.6c.4 0 .7 0 1.1-.2zM162.6 159.9h4.5v17.7h6.7v4.1h-11.2v-21.8zM176.3 159.9h10.4v4.2h-5.9v4.3h4.1l-1.3 4.1h-2.9v5.1h5.8v4h-10.3v-21.7z"/></g></svg>