<svg xmlns="http://www.w3.org/2000/svg" viewBox="0 0 923 201"><path d="M876.5 201.7h-830C20.8 201.7 0 180.8 0 155.1V46.5C0 20.8 20.8 0 46.5 0h830C902.2 0 923 20.8 923 46.5v108.6c.1 25.7-20.8 46.6-46.5 46.6zm38.8-155.2c0-21.4-17.4-38.8-38.8-38.8h-830C25.1 7.8 7.8 25.1 7.8 46.5v108.6c0 21.4 17.4 38.8 38.8 38.8h830c21.4 0 38.8-17.4 38.8-38.8V46.5z" opacity=".349" fill-rule="evenodd" clip-rule="evenodd" fill="#424770"/><path d="M470.8 143h-10.1l7.8-19.3L453 84.3h10.7l9.8 26.8 9.9-26.8H494L470.8 143zM432 126.1c-3.5 0-7.1-1.3-10.4-3.8v2.9h-10.4V66.4h10.4v20.7c3.3-2.5 6.9-3.8 10.4-3.8 10.9 0 18.4 8.8 18.4 21.4 0 12.6-7.5 21.4-18.4 21.4zm-2.2-33.8c-2.9 0-5.7 1.2-8.2 3.7v17.5c2.4 2.4 5.3 3.7 8.2 3.7 5.9 0 10-5.1 10-12.4-.1-7.4-4.1-12.5-10-12.5zm-60.9 30c-3.2 2.5-6.8 3.8-10.4 3.8-10.9 0-18.4-8.8-18.4-21.4 0-12.6 7.6-21.4 18.4-21.4 3.6 0 7.2 1.3 10.4 3.8V66.4h10.5v58.7h-10.5v-2.8zm0-26.3c-2.4-2.5-5.2-3.7-8.1-3.7-6 0-10 5.1-10 12.4s4.1 12.4 10 12.4c2.9 0 5.7-1.2 8.1-3.7V96zm-62.2 11.6c.7 6.2 5.6 10.4 12.4 10.4 3.8 0 7.9-1.4 12.2-3.8v8.7c-4.6 2.1-9.3 3.2-13.9 3.2-12.3 0-21-9-21-21.7 0-12.3 8.5-21.1 20.2-21.1 10.7 0 18 8.4 18 20.4 0 1.1 0 2.5-.2 3.8h-27.7zm9.4-16.2c-5.1 0-9 3.8-9.5 9.4h17.8c-.3-5.5-3.6-9.4-8.3-9.4zm-36.9 6.5v27.3h-10.4V84.3h10.4v4.1c2.9-3.3 6.5-5.1 10-5.1 1.1 0 2.3.1 3.4.4V93c-1.1-.3-2.4-.5-3.7-.5-3.4.1-7.1 1.9-9.7 5.4zm-46.7 9.7c.7 6.2 5.5 10.4 12.4 10.4 3.8 0 7.9-1.4 12.2-3.8v8.7c-4.7 2.1-9.3 3.2-13.9 3.2-12.3 0-21-9-21-21.7 0-12.3 8.5-21.1 20.2-21.1 10.7 0 18 8.4 18 20.4 0 1.1 0 2.5-.2 3.8h-27.7zm9.5-16.2c-5.1 0-9 3.8-9.5 9.4h17.8c-.3-5.5-3.6-9.4-8.3-9.4zm-46 33.7l-8.3-27.8-8.2 27.8h-9.4l-14-40.8h10.4l8.2 27.8 8.2-27.8h9.5l8.2 27.8 8.2-27.8h10.4l-14 40.8H196zm-63.8 1c-12.3 0-21.1-8.9-21.1-21.4 0-12.6 8.7-21.4 21.1-21.4s21 8.8 21 21.4c0 12.5-8.7 21.4-21 21.4zm0-34c-6.1 0-10.4 5.1-10.4 12.7 0 7.5 4.2 12.7 10.4 12.7 6 0 10.3-5.1 10.3-12.7s-4.3-12.7-10.3-12.7zM86.3 105h-9.4v20.2H66.5V69h19.8c11.4 0 19.6 7.4 19.6 18s-8.1 18-19.6 18zm-1.4-27.5H77v19h7.9c6 0 10.3-3.8 10.3-9.5-.1-5.7-4.3-9.5-10.3-9.5zm777 31.5h-43.1c1 10.3 8.5 13.4 17.1 13.4 8.7 0 15.6-1.8 21.6-4.9v17.7c-6 3.3-13.9 5.7-24.4 5.7-21.5 0-36.5-13.4-36.5-40 0-22.4 12.8-40.2 33.7-40.2 20.9 0 31.8 17.8 31.8 40.4.1 2.1-.1 6.7-.2 7.9zm-31.7-30.3c-5.5 0-11.6 4.2-11.6 14.1h22.8c0-10-5.8-14.1-11.2-14.1zM761 140.9c-7.7 0-12.4-3.3-15.6-5.6v24.9l-22 4.7V62.1h19.4l1.1 5.4c3-2.8 8.6-6.9 17.3-6.9 15.5 0 30 13.9 30 39.6 0 28.1-14.4 40.7-30.2 40.7zm-5.1-60.7c-5 0-8.2 1.8-10.5 4.4l.1 32.7c2.1 2.3 5.2 4.2 10.4 4.2 8.1 0 13.6-8.9 13.6-20.7 0-11.6-5.6-20.6-13.6-20.6zm-64.4-18h22.1v77.2h-22.1V62.2zm0-24.7l22.1-4.7v17.9l-22.1 4.7V37.5zM668 87v52.3h-22V62.2h19l1.4 6.5c5.2-9.5 15.5-7.6 18.4-6.5v20.2c-2.9-.9-11.6-2.2-16.8 4.6zm-47.3 25.3c0 13 13.9 8.9 16.7 7.8V138c-2.9 1.6-8.3 2.9-15.5 2.9-13.1 0-22.9-9.6-22.9-22.7l.1-70.7 21.5-4.6V62h16.7v18.8h-16.7l.1 31.5zm-27.4 3.7c0 15.9-12.6 24.9-30.9 24.9-7.6 0-15.9-1.5-24.1-5v-21c7.4 4 16.8 7 24.1 7 4.9 0 8.4-1.3 8.4-5.4 0-10.5-33.5-6.6-33.5-30.9 0-15.6 11.9-24.9 29.8-24.9 7.3 0 14.6 1.1 21.9 4v20.7c-6.7-3.6-15.2-5.7-21.9-5.7-4.6 0-7.5 1.3-7.5 4.8 0 10 33.7 5.3 33.7 31.5z" opacity=".502" fill-rule="evenodd" clip-rule="evenodd" fill="#424770"/></svg>